<svg width="83" height="83" viewBox="0 0 83 83" fill="none" xmlns="http://www.w3.org/2000/svg">
<circle cx="41.7768" cy="41.2187" r="40.8036" fill="white" fill-opacity="0.3"/>
<circle cx="41.7769" cy="41.2188" r="27.5424" stroke="white" stroke-width="6.12054"/>
<path d="M42.8857 34.17C42.4205 34.17 42.0043 33.9864 41.6371 33.6191C41.2943 33.2519 41.1352 32.8357 41.1597 32.3705L41.1964 31.0118C41.2209 30.5466 41.4045 30.1427 41.7472 29.7999C42.09 29.4572 42.4939 29.2858 42.9591 29.2858C43.4243 29.2858 43.8282 29.4694 44.171 29.8366C44.5382 30.2039 44.7096 30.6078 44.6851 31.0485L44.6484 32.444C44.6239 32.9336 44.4403 33.3498 44.0975 33.6926C43.7793 34.0108 43.3753 34.17 42.8857 34.17ZM42.702 54.0372C42.2124 54.0372 41.784 53.8659 41.4167 53.5231C41.074 53.1559 40.9026 52.7274 40.9026 52.2378L41.0862 37.622C41.0862 37.1323 41.2576 36.7161 41.6003 36.3734C41.9676 36.0061 42.396 35.8225 42.8857 35.8225C43.3998 35.8225 43.8282 36.0061 44.171 36.3734C44.5137 36.7161 44.6851 37.1323 44.6851 37.622L44.5015 52.2378C44.5015 52.7274 44.3179 53.1559 43.9506 53.5231C43.6079 53.8659 43.1917 54.0372 42.702 54.0372Z" fill="white"/>
</svg>
