<svg width="409" height="409" viewBox="0 0 409 409" fill="none" xmlns="http://www.w3.org/2000/svg">
<path d="M11.0587 140.811L140.264 11.6074C147.239 4.63333 156.54 0.792053 166.456 0.792053C176.371 0.792053 185.673 4.63173 192.647 11.6058L397.448 216.407C404.422 223.382 408.263 232.682 408.263 242.598C408.263 252.513 404.422 261.815 397.448 268.789L381.515 284.721C381.514 284.722 381.513 284.724 381.511 284.725C381.51 284.727 381.508 284.728 381.507 284.73L274.429 391.807H289.255C293.949 391.807 297.756 395.613 297.756 400.308C297.756 405.002 293.949 408.808 289.255 408.808H242.085C242.074 408.808 242.064 408.809 242.052 408.809C242.041 408.809 242.031 408.808 242.02 408.808L119.248 408.809C114.554 408.809 110.748 405.003 110.748 400.309C110.748 395.614 114.554 391.809 119.248 391.809L209.673 391.807L11.058 193.193C-3.38269 178.751 -3.38269 155.252 11.0587 140.811ZM23.0799 181.172L227.882 385.974C231.638 389.729 236.659 391.799 242.021 391.807H242.086C247.447 391.799 252.466 389.729 256.22 385.974L363.479 278.715L166.797 82.031C163.478 78.7117 163.478 73.3292 166.797 70.0099C170.117 66.6906 175.498 66.6906 178.819 70.0107L375.501 266.694L385.428 256.768C389.19 253.005 391.262 247.973 391.262 242.599C391.262 237.224 389.19 232.191 385.427 228.428L180.626 23.6277C176.863 19.8653 171.83 17.7933 166.456 17.7933C161.081 17.7933 156.048 19.8653 152.285 23.6285L106.299 69.6138L302.984 266.3C306.303 269.618 306.303 275.001 302.984 278.322C301.324 279.981 299.148 280.811 296.973 280.811C294.798 280.811 292.623 279.98 290.962 278.321L94.2781 81.6357L23.0799 152.832C15.2674 160.645 15.2682 173.359 23.0799 181.172Z" fill="white"/>
</svg>
